<svg width="25" height="27" viewBox="0 0 25 27" fill="none" xmlns="http://www.w3.org/2000/svg">
<path d="M19.9119 12.7227C20.614 19.2174 23.375 21.181 23.375 21.181H1.625C1.625 21.181 5.25 18.6036 5.25 9.58099C5.25 7.53045 6.01367 5.56328 7.37304 4.11328C8.73363 2.66328 10.5787 1.84766 12.5 1.84766C12.9072 1.84766 13.312 1.88391 13.7083 1.95641" stroke="#023374" stroke-width="1.8125" stroke-linecap="round" stroke-linejoin="round"/>
<path d="M14.59 24.8062C14.3778 25.1727 14.073 25.477 13.7061 25.6885C13.3392 25.9001 12.9231 26.0114 12.4996 26.0114C12.0761 26.0114 11.66 25.9001 11.2931 25.6885C10.9262 25.477 10.6214 25.1727 10.4092 24.8062" stroke="#023374" stroke-width="1.8125" stroke-linecap="round" stroke-linejoin="round"/>
</svg>
