<svg width="25" height="27" viewBox="0 0 25 27" fill="none" xmlns="http://www.w3.org/2000/svg">
<path d="M23.2 21.9868H1.5C1.1 21.9868 0.8 21.6868 0.6 21.3868C0.5 20.9868 0.6 20.5868 0.9 20.3868C0.9 20.3868 4.1 17.8868 4.1 9.48676C4.1 7.18676 4.9 4.98676 6.5 3.38676C8.3 1.38676 11.1 0.486762 13.7 0.986762C16.3 1.38676 21.1 4.28676 20.7 12.5868C21.4 18.4868 23.8 20.2868 23.8 20.3868C24.1 20.5868 24.2 20.9868 24.1 21.3868C24 21.7868 23.6 21.9868 23.2 21.9868ZM3.4 20.1868H21.2C20.3 18.7868 19.2 16.4868 18.8 12.6868V12.5868C19.2 5.48676 15.4 3.08676 13.4 2.78676C13 2.68676 12.7 2.68676 12.3 2.68676C10.6 2.68676 9 3.38676 7.8 4.68676C6.7 5.88676 6 7.68676 6 9.48676C6 15.1868 4.6 18.3868 3.4 20.1868Z" fill="#023374"/>
<path d="M12.2993 26.7867C11.6993 26.7867 11.0993 26.5867 10.5993 26.3867C10.0993 26.0867 9.69933 25.6867 9.39933 25.1867C9.09933 24.7867 9.29933 24.1867 9.69933 23.9867C10.0993 23.6867 10.6993 23.8867 10.8993 24.2867C10.9993 24.4867 11.1993 24.6867 11.4993 24.8867C11.9993 25.1867 12.5993 25.1867 12.9993 24.8867C13.1993 24.7867 13.3993 24.5867 13.5993 24.2867C13.8993 23.8867 14.3993 23.6867 14.7993 23.9867C15.1993 24.2867 15.3993 24.7867 15.0993 25.1867C14.7993 25.6867 14.3993 26.0867 13.8993 26.3867C13.4993 26.6867 12.8993 26.7867 12.2993 26.7867Z" fill="#023374"/>
</svg>
