<?xml version="1.0" encoding="utf-8"?>
<!-- Generator: Adobe Illustrator 24.2.3, SVG Export Plug-In . SVG Version: 6.00 Build 0)  -->
<svg version="1.1" id="Слой_1" xmlns="http://www.w3.org/2000/svg" xmlns:xlink="http://www.w3.org/1999/xlink" x="0px" y="0px"
	 viewBox="0 0 24 27" style="enable-background:new 0 0 24 27;" xml:space="preserve">
<style type="text/css">
	.st0{fill:#023374;}
</style>
<path class="st0" d="M22.7,22.1H1c-0.4,0-0.7-0.3-0.9-0.6c-0.1-0.4,0-0.8,0.3-1c0,0,3.2-2.5,3.2-10.9c0-2.3,0.8-4.5,2.4-6.1
	c1.8-2,4.6-2.9,7.2-2.4c2.6,0.4,7.4,3.3,7,11.6c0.7,5.9,3.1,7.7,3.1,7.8c0.3,0.2,0.4,0.6,0.3,1S23.1,22.1,22.7,22.1z M2.9,20.3h17.8
	c-0.9-1.4-2-3.7-2.4-7.5c0,0,0-0.1,0-0.1c0.4-7.1-3.4-9.5-5.4-9.8c-0.4-0.1-0.7-0.1-1.1-0.1c-1.7,0-3.3,0.7-4.5,2
	C6.2,6,5.5,7.8,5.5,9.6C5.5,15.3,4.1,18.5,2.9,20.3z"/>
<path class="st0" d="M11.8,26.9c-0.6,0-1.2-0.2-1.7-0.4c-0.5-0.3-0.9-0.7-1.2-1.2c-0.3-0.4-0.1-1,0.3-1.2c0.4-0.3,1-0.1,1.2,0.3
	c0.1,0.2,0.3,0.4,0.6,0.6c0.5,0.3,1.1,0.3,1.5,0c0.2-0.1,0.4-0.3,0.6-0.6c0.3-0.4,0.8-0.6,1.2-0.3s0.6,0.8,0.3,1.2
	c-0.3,0.5-0.7,0.9-1.2,1.2C13,26.8,12.4,26.9,11.8,26.9z"/>
</svg>
