<svg width="29" height="29" viewBox="0 0 29 29" fill="none" xmlns="http://www.w3.org/2000/svg">
<path d="M21.9119 13.2915C22.614 19.7863 25.375 21.7498 25.375 21.7498H3.625C3.625 21.7498 7.25 19.1725 7.25 10.1498C7.25 8.0993 8.01367 6.13213 9.37304 4.68213C10.7336 3.23213 12.5788 2.4165 14.5 2.4165C14.9072 2.4165 15.312 2.45275 15.7083 2.52525" stroke="#023374" stroke-width="1.8125" stroke-linecap="round" stroke-linejoin="round"/>
<path d="M16.5899 25.3748C16.3777 25.7413 16.0728 26.0456 15.7059 26.2572C15.339 26.4687 14.923 26.5801 14.4994 26.5801C14.0759 26.5801 13.6599 26.4687 13.293 26.2572C12.9261 26.0456 12.6212 25.7413 12.409 25.3748" stroke="#023374" stroke-width="1.8125" stroke-linecap="round" stroke-linejoin="round"/>
<path d="M21 12C22.3261 12 23.5979 11.4732 24.5355 10.5355C25.4732 9.59785 26 8.32608 26 7C26 5.67392 25.4732 4.40215 24.5355 3.46447C23.5979 2.52678 22.3261 2 21 2C19.6739 2 18.4021 2.52678 17.4645 3.46447C16.5268 4.40215 16 5.67392 16 7C16 8.32608 16.5268 9.59785 17.4645 10.5355C18.4021 11.4732 19.6739 12 21 12Z" fill="#C90808"/>
</svg>
