<svg width="17" height="16" viewBox="0 0 17 16" fill="none" xmlns="http://www.w3.org/2000/svg">
<path d="M7.99978 7.5556C8.6151 7.5556 9.2166 7.37314 9.72822 7.03128C10.2398 6.68943 10.6386 6.20354 10.8741 5.63506C11.1095 5.06658 11.1712 4.44104 11.0511 3.83754C10.9311 3.23404 10.6348 2.6797 10.1997 2.2446C9.76457 1.8095 9.21023 1.5132 8.60673 1.39315C8.00323 1.27311 7.37769 1.33472 6.80921 1.57019C6.24073 1.80567 5.75484 2.20443 5.41299 2.71605C5.07114 3.22767 4.88867 3.82917 4.88867 4.44449C4.88867 5.26961 5.21645 6.06093 5.7999 6.64438C6.38334 7.22782 7.17467 7.5556 7.99978 7.5556ZM7.99978 2.22226C8.4393 2.22226 8.86894 2.3526 9.23438 2.59678C9.59983 2.84096 9.88465 3.18802 10.0528 3.59408C10.221 4.00014 10.2651 4.44695 10.1793 4.87802C10.0936 5.30909 9.88191 5.70505 9.57113 6.01584C9.26035 6.32662 8.86439 6.53827 8.43332 6.62401C8.00225 6.70976 7.55543 6.66575 7.14938 6.49755C6.74332 6.32936 6.39625 6.04453 6.15207 5.67909C5.90789 5.31365 5.77756 4.884 5.77756 4.44449C5.77756 3.85512 6.01169 3.28989 6.42843 2.87314C6.84518 2.45639 7.41041 2.22226 7.99978 2.22226V2.22226Z" fill="white"/>
<path d="M13.5422 10.8311C12.8294 10.0778 11.9705 9.47773 11.018 9.06764C10.0654 8.65755 9.03924 8.44604 8.00217 8.44604C6.9651 8.44604 5.93892 8.65755 4.98637 9.06764C4.03383 9.47773 3.17492 10.0778 2.46217 10.8311C2.30764 10.9962 2.22182 11.2139 2.22217 11.44V13.7778C2.22217 14.0135 2.31582 14.2396 2.48252 14.4063C2.64922 14.573 2.87531 14.6667 3.11106 14.6667H12.8888C13.1246 14.6667 13.3507 14.573 13.5174 14.4063C13.6841 14.2396 13.7777 14.0135 13.7777 13.7778V11.44C13.7793 11.2145 13.6951 10.9968 13.5422 10.8311V10.8311ZM12.8888 13.7778H3.11106V11.4355C3.74094 10.7723 4.49919 10.2441 5.33966 9.88323C6.18014 9.52232 7.08526 9.33621 7.99995 9.33621C8.91463 9.33621 9.81976 9.52232 10.6602 9.88323C11.5007 10.2441 12.259 10.7723 12.8888 11.4355V13.7778Z" fill="white"/>
<path d="M14 5V7M14 7V9M14 7H16M14 7H12" stroke="white" stroke-linecap="round" stroke-linejoin="round"/>
</svg>
