<svg width="61" height="61" viewBox="0 0 61 61" fill="none" xmlns="http://www.w3.org/2000/svg">
<path d="M41.4555 61H19.5445C8.77063 61 0 52.2323 0 41.4555V19.5445C0 8.76767 8.76767 0 19.5445 0H41.4555C52.2323 0 61 8.76767 61 19.5445V41.4555C61 52.2323 52.2323 61 41.4555 61ZM19.5445 2.30275C14.9735 2.30825 10.5914 4.1266 7.35934 7.3589C4.12731 10.5912 2.30934 14.9735 2.30424 19.5445V41.4555C2.30934 46.0263 4.12736 50.4085 7.35943 53.6406C10.5915 56.8726 14.9737 58.6907 19.5445 58.6958H41.4555C46.0265 58.6907 50.4088 56.8727 53.6411 53.6407C56.8734 50.4086 58.6917 46.0265 58.6972 41.4555V19.5445C58.6921 14.9733 56.874 10.5907 53.6416 7.35838C50.4093 4.12603 46.0267 2.30786 41.4555 2.30275H19.5445Z" fill="#D5AD61"/>
<path d="M53.291 20.4905C52.7424 19.6147 52.4686 19.114 52.4696 18.9885C52.4696 18.8179 52.5986 18.5733 52.8566 18.2545C53.1146 17.9357 53.1917 17.8393 53.2243 17.7459C53.294 17.5413 53.125 17.3826 52.8922 17.3826C52.7217 17.3826 52.5185 17.5843 52.2857 17.9876C51.9096 18.5769 51.4613 19.1169 50.9512 19.5949C50.4219 20.0753 49.9029 20.5498 49.3869 21.0139L49.2386 21.1622L49.1763 21.2186C49.0592 21.3283 48.9524 21.4306 48.8575 21.524C48.217 22.1171 46.5563 23.5999 45.9365 24.2138C45.2514 24.887 44.5189 25.4208 44.1927 25.4208C44.153 25.4166 44.1138 25.4086 44.0756 25.397C43.911 25.3451 43.8398 25.1346 43.8206 24.8395C43.8135 24.2232 43.9597 23.6148 44.2461 23.0691L48.1532 15.7338H50.155L50.321 15.1051H48.5966L50.4456 11.5879L47.9545 11.7051L45.1462 16.8266C44.5096 17.9831 44.0024 18.9138 43.6248 19.6186C43.0643 20.1628 42.3837 20.7871 41.7343 21.1874C41.629 21.2527 40.8372 21.7479 40.6667 21.7108C41.0092 20.7663 41.1931 20.0931 41.1931 19.7669C41.1931 18.7903 40.6667 18.3014 39.6139 18.3005C38.2794 18.3005 36.9029 19.1852 35.4844 20.9546C35.2798 21.2126 35.0959 21.4662 34.9209 21.7168C33.7821 22.7547 32.4491 24.1233 31.5936 24.7935C30.8374 25.3866 30.5438 25.3866 30.2176 25.3866C30.1789 25.3822 30.1406 25.3743 30.1034 25.3629C29.9373 25.3006 29.8572 25.1079 29.8483 24.8054C29.9056 24.2178 30.032 23.6389 30.225 23.0809C30.4919 22.2595 30.7341 21.7548 30.9515 21.567C31.948 20.7456 32.6948 20.1248 33.192 19.7046C36.0864 17.1889 38.2824 14.6187 39.78 11.9942C40.1403 11.3714 40.2871 10.9563 40.3242 10.3631C40.3612 9.77004 39.912 9.45569 39.0905 9.45569C37.3972 9.45569 35.3272 11.062 32.8806 14.2747C30.9174 16.8528 29.4346 19.4768 28.4323 22.1468C27.8847 23.6068 27.6098 24.8178 27.6079 25.7796C27.6017 26.1533 27.738 26.5153 27.9889 26.7923C28.108 26.9315 28.2565 27.0424 28.4237 27.117C28.5909 27.1917 28.7726 27.2281 28.9557 27.2238C29.5755 27.2238 30.3391 27.0755 31.8145 25.5601C32.4951 24.8588 33.3699 23.9543 33.9972 23.3048C33.6534 24.011 33.4649 24.7825 33.4441 25.5675C33.4441 26.6846 34.0555 27.2431 35.2783 27.2431C36.1679 27.2431 37.1713 26.6139 38.2883 25.3555C39.0985 24.4493 39.7956 23.448 40.3642 22.3736C41.2865 22.1913 42.3289 21.4217 42.9709 20.8657C42.9086 20.9917 42.8597 21.091 42.8226 21.1622C41.9972 22.9791 41.5816 24.5316 41.5756 25.8196C41.5691 26.1939 41.7066 26.5565 41.9597 26.8324C42.0782 26.9714 42.2262 27.0822 42.3929 27.1569C42.5596 27.2315 42.7409 27.2681 42.9235 27.2638C43.5448 27.2638 44.4759 26.5358 45.9424 25.0071C46.5251 24.3991 47.9842 23.0439 48.7938 22.2432C49.037 22.0341 49.4062 21.7049 49.9088 21.2452C50.8361 20.3991 51.3773 19.9216 51.5325 19.8129V20.5543C51.538 21.7493 51.3687 22.9388 51.0298 24.0848C50.7333 25.0486 50.3512 25.7084 49.8836 26.0643C49.6077 26.2905 49.2619 26.4142 48.905 26.4142C48.7178 26.4132 48.5331 26.3707 48.3642 26.29C48.1952 26.2092 48.0462 26.0922 47.9278 25.9471C48.0568 25.9819 48.1902 25.9979 48.3237 25.9946C48.4481 25.9948 48.5709 25.9666 48.6827 25.9122C48.7945 25.8577 48.8923 25.7783 48.9688 25.6802C49.1391 25.4916 49.2355 25.2478 49.2401 24.9937C49.2401 24.2612 48.8931 23.8979 48.1933 23.8979C48.0224 23.8927 47.8522 23.9231 47.6937 23.9871C47.5352 24.0512 47.3917 24.1476 47.2725 24.2701C47.1532 24.3938 47.0596 24.5399 46.9973 24.7C46.9349 24.8601 46.905 25.031 46.9092 25.2028C46.9092 25.8236 47.2028 26.3178 47.7899 26.6856C48.3197 27.0166 48.9343 27.1866 49.5589 27.1749H49.7457C50.7708 27.1284 51.7425 26.6475 52.6609 25.7321C53.6247 24.7861 54.1086 23.7615 54.1125 22.6583C54.1145 22.088 53.8407 21.3654 53.291 20.4905ZM34.6273 14.6187C36.6528 11.6858 38.186 10.2164 39.2521 10.2164C39.3678 10.2164 39.6436 10.2341 39.6213 10.6834C39.4315 11.8469 38.2542 13.6401 36.0893 16.0629C34.1271 18.2664 32.5005 19.7956 31.2095 20.6507C31.77 19.1115 32.9093 17.0999 34.6273 14.6158V14.6187ZM36.5668 25.3259C36.2569 25.3259 36.0834 25.1702 36.1042 24.8603C36.1443 24.2098 36.3073 23.5728 36.5846 22.9831C36.9379 22.2337 37.3908 21.5354 37.931 20.9072C38.2849 21.6535 38.8888 22.0726 39.7429 22.1646C38.6358 24.2721 37.5771 25.3249 36.5668 25.3229V25.3259ZM40.3998 20.8316C40.2945 21.3046 40.1536 21.564 39.9787 21.5996C39.9412 21.614 39.9016 21.622 39.8615 21.6234C39.5102 21.6074 39.1759 21.4671 38.9185 21.2275C38.6032 20.9635 38.4455 20.6843 38.4455 20.3897C38.4455 20.0931 38.6264 19.807 38.9837 19.5282C39.3411 19.2494 39.6673 19.1086 39.9624 19.1086C40.3657 19.1086 40.5673 19.3636 40.5659 19.8766C40.5402 20.1984 40.4846 20.5171 40.3998 20.8286V20.8316Z" fill="#D5AD61"/>
<path d="M30.1049 38.5523C29.9907 38.8488 30.0574 39.2818 30.1582 39.5487C30.2709 39.7681 30.4948 39.9935 31.1131 39.9594C31.6558 39.9283 31.9924 39.7726 32.1704 39.5843C32.3483 39.396 32.5351 39.178 32.5069 38.6338C32.4699 37.9517 31.9969 37.6315 31.469 37.6611C31.1966 37.6531 30.9282 37.7281 30.6994 37.8761C30.4232 38.0187 30.2109 38.2601 30.1049 38.5523V38.5523Z" fill="#D5AD61"/>
<path d="M22.0296 48.1176C17.3085 50.7614 16.5849 47.308 17.605 44.209C18.4161 41.7402 19.8752 38.3076 24.0507 34.1469C25.83 32.3676 29.0387 30.9486 29.9106 32.3676C30.4459 33.235 29.8898 35.4503 28.1313 36.288C27.4625 36.6053 27.8792 37.0398 28.0645 36.9686C28.8252 36.6721 30.044 35.4859 30.4563 34.3367C31.2896 31.9954 29.7238 29.6882 25.1509 31.8708C19.8677 34.3916 16.9452 37.9725 14.8871 42.1984C13.9707 44.0815 12.7341 48.26 14.5238 49.8673C16.3135 51.4746 19.0492 50.9379 21.9629 49.332C24.5711 47.8952 26.693 45.6607 27.937 44.0355C28.1283 43.4321 28.3893 42.8404 28.6072 42.231C26.8682 44.6476 24.6237 46.6564 22.0296 48.1176V48.1176Z" fill="#D5AD61"/>
<path d="M47.5794 46.6096C46.8128 46.7579 45.5035 47.1864 44.2906 47.5541C44.378 47.3896 44.5501 47.1093 44.6479 46.9254C45.3389 45.6458 46.0477 44.0859 46.9952 42.0782C47.6921 40.6088 48.0138 39.8852 48.3993 39.1572C48.0018 39.1238 47.6022 39.1214 47.2042 39.1498C47.0161 39.1568 46.8292 39.1836 46.6467 39.2298C46.6007 39.2402 46.2152 39.9178 46.1411 40.0454C46.0106 40.2752 44.7903 42.5557 44.4848 43.1028C44.0222 43.9317 43.6841 44.4744 43.3816 44.9637C43.1688 45.3368 42.9237 45.6906 42.6491 46.021C42.5972 46.0862 42.2251 46.5903 41.8855 46.6141C41.626 46.6289 41.371 46.4999 41.3532 46.1781C41.3295 45.7333 41.6898 44.8288 42.1954 43.5403C42.6402 42.3941 43.0154 41.5237 43.3268 40.8831C43.6233 40.0142 43.2126 39.3781 42.4371 39.4226C42.3047 39.4317 42.1739 39.4561 42.0471 39.4952C41.7343 39.5916 41.3176 39.7681 40.4754 40.5628C40.0659 40.9457 39.7044 41.3769 39.3989 41.8469C38.8132 42.618 36.205 46.405 35.3954 47.1686C35.2008 47.3654 34.9472 47.493 34.6733 47.5319C34.4983 47.5319 34.3411 47.3302 34.31 47.0426C34.2744 46.3916 34.6911 45.5954 34.9417 45.0542L38.2616 37.7797L40.2619 37.6655L40.3909 37.0279L38.6708 37.1258L40.3167 33.5122L37.8346 33.7688L35.3227 39.0445C34.1088 41.586 33.4198 43.0712 33.2557 43.5002C33.2394 43.5403 33.2261 43.5758 33.2113 43.6159C32.3794 44.5916 29.7015 47.4563 29.1722 47.8285C29.1213 47.8625 29.0626 47.8829 29.0017 47.8878C28.8638 47.8967 28.7792 47.7884 28.8445 47.6401C29.3536 45.8401 30.176 43.8032 31.3118 41.5296L28.8474 41.669C28.7733 41.8558 28.6992 42.0397 28.6265 42.2176C28.5598 42.3096 28.4501 42.4549 28.3033 42.6373C28.0467 43.2304 27.7472 43.8057 27.5189 44.3943C27.6672 44.2194 27.8154 44.0503 27.9429 43.8917C27.8065 44.2223 27.7087 44.4626 27.6672 44.5693L26.8754 46.6022C26.6362 47.2014 26.4525 47.8214 26.3267 48.4542C26.4009 49.4328 26.7968 49.9058 27.5129 49.8643C28.2291 49.8228 29.1054 49.2282 30.1464 48.085C31.0761 47.0604 31.8145 46.2775 32.5737 45.4353C32.3188 46.2296 32.1805 47.0567 32.1629 47.8907C32.1629 48.4735 32.3542 48.9865 32.6241 49.2593C32.8939 49.5322 33.2809 49.5692 33.6694 49.547C34.2892 49.5129 35.2219 48.7522 36.4971 47.0604C37.1288 46.2271 40.0899 41.9048 40.2633 41.669C40.5747 41.3116 40.7794 41.0359 40.9024 41.0284C40.9958 41.0284 41.0507 41.0744 41.0507 41.1767C41.0507 41.279 40.6548 42.1316 39.8482 43.7197C39.0415 45.3077 38.6516 46.3679 38.6797 46.9106C38.6807 47.109 38.7215 47.3052 38.7997 47.4876C38.8779 47.67 38.9919 47.8348 39.135 47.9723C39.4612 48.3074 40.0083 48.3815 40.4368 48.3578C41.2746 48.3044 41.9819 47.7439 42.5261 47.0708L42.7262 46.8839L42.0323 48.2525C37.796 49.8836 35.5081 51.5769 35.5081 53.4897C35.502 53.7465 35.566 54 35.6932 54.2232C35.8205 54.4463 36.0061 54.6305 36.2302 54.756C36.6469 55.0125 37.1347 55.0763 37.713 55.0437C39.777 54.9265 41.6675 52.9307 43.7078 48.5921C46.494 47.95 47.3065 48.5209 47.4756 48.3207C48.1517 47.52 48.5536 46.9299 48.9035 46.5755C49.1096 46.3546 48.5639 46.4243 47.5794 46.6096ZM37.5321 54.6166C36.7581 54.6611 36.3888 54.3319 36.3458 53.6039C36.3028 52.8106 36.7566 51.9817 37.6892 51.1128C38.8656 50.2336 40.1725 49.5442 41.5623 49.0695C39.9683 52.6045 38.5596 54.5558 37.5365 54.6137L37.5321 54.6166Z" fill="#D5AD61"/>
<path d="M25.1049 24.1841C24.7684 24.8 24.3152 25.3445 23.7704 25.787C22.857 26.5284 21.7168 27.083 20.5469 26.9732C19.1308 26.8413 17.9905 25.8686 16.8547 25.1094C15.6361 24.2763 14.2812 23.6626 12.8512 23.2959C11.0719 22.8645 9.07905 22.9905 7.46875 23.9068C5.42549 25.0693 4.41127 27.5723 4.5892 29.8528C4.80569 32.6108 6.86675 34.3842 9.6514 34.1395C12.3204 33.9052 14.7195 32.6478 17.2314 31.8471C24.4582 29.547 32.1063 28.8835 39.6213 29.9047C40.4457 30.0174 41.2657 30.1508 42.0812 30.305C44.8733 30.8314 47.6387 31.5995 50.1742 32.8762C50.8148 33.1979 51.8424 33.7095 51.8424 33.7095C51.8424 33.7095 55.3432 33.6665 56.4553 33.7614C53.1843 32.0102 48.7448 30.4993 45.1017 29.7119C39.8111 28.5657 34.6006 28.3641 29.227 28.7096C25.6921 28.9364 21.6916 29.5488 18.3064 30.6461C16.5893 31.2036 14.985 32.1155 13.1952 32.4343C10.8984 32.8421 7.40351 31.9035 8.00552 28.8875C8.56453 26.0702 11.9215 24.6067 14.4363 25.7218C16.1727 26.4913 17.6465 27.765 19.6349 27.7977C21.6234 27.8303 23.5747 26.8932 25.0975 25.6521C26.0732 24.8573 26.9584 23.8905 27.3839 22.7073C27.8095 21.524 27.6968 20.0902 26.862 19.1486C26.3371 18.5555 25.5898 18.2115 24.8365 17.9743C21.3995 16.8918 17.5709 17.7607 14.1457 16.6398C12.9743 16.2542 11.7481 15.4535 11.6087 14.2302C11.533 13.5585 11.8163 12.8809 12.2641 12.3753C12.7309 11.8846 13.2999 11.5024 13.9307 11.2558C15.3245 10.6802 16.8465 10.4868 18.3399 10.6953C19.8334 10.9038 21.2442 11.5067 22.427 12.442C23.3256 13.173 24.0937 14.1413 24.2449 15.3067C24.2449 15.3067 24.2523 15.3067 24.2449 15.3156C24.1871 15.4313 24.7861 15.2771 24.7861 15.2771C25.3125 14.5653 26.1206 13.6875 26.7137 12.9417C25.0441 11.1757 22.4344 10.1763 20.0412 9.77894C17.6222 9.38375 15.1402 9.78276 12.9669 10.9162C11.5627 11.6576 10.2771 12.7312 9.79227 14.3266C9.66038 14.7497 9.61006 15.194 9.64399 15.6359C9.8323 17.9224 12.0164 18.9099 14.0152 19.2643C17.2773 19.844 20.7203 19.3488 23.849 20.5365C24.2769 20.6933 24.6579 20.956 24.9566 21.3001C25.7158 22.2046 25.5928 23.2633 25.1049 24.1841Z" fill="#D5AD61"/>
</svg>
